<?xml version="1.0" standalone="no"?>
<!DOCTYPE svg PUBLIC "-//W3C//DTD SVG 20010904//EN"
 "http://www.w3.org/TR/2001/REC-SVG-20010904/DTD/svg10.dtd">
<svg version="1.0" xmlns="http://www.w3.org/2000/svg"
 width="2000.000000pt" height="2000.000000pt" viewBox="0 0 2000.000000 2000.000000"
 preserveAspectRatio="xMidYMid meet">
<metadata>
Created by potrace 1.14, written by Peter Selinger 2001-2017
</metadata>
<g transform="translate(0.000000,2000.000000) scale(0.100000,-0.100000)"
fill="#000000" stroke="none">
<path d="M0 10000 l0 -10000 10000 0 10000 0 0 10000 0 10000 -10000 0 -10000
0 0 -10000z m10730 2920 c230 -29 408 -112 574 -270 63 -60 112 -125 246 -325
253 -378 235 -367 615 -376 230 -5 281 -9 347 -27 362 -98 609 -348 715 -722
17 -62 18 -142 18 -1675 l0 -1610 -22 -88 c-91 -357 -351 -623 -703 -719 l-85
-23 -2435 0 -2435 0 -84 23 c-350 96 -608 358 -703 714 l-22 83 -4 1545 c-2
1111 0 1572 8 1640 38 319 228 595 513 745 171 90 301 115 607 115 323 0 323
0 556 352 127 192 186 272 248 334 162 163 363 260 591 284 111 12 1359 11
1455 0z"/>
<path d="M9235 12241 c-33 -16 -74 -44 -91 -62 -17 -19 -100 -137 -185 -264
-214 -323 -315 -423 -520 -519 -163 -77 -224 -87 -534 -95 l-270 -6 -65 -36
c-76 -42 -133 -109 -155 -183 -13 -43 -15 -254 -15 -1567 l0 -1518 22 -58 c29
-79 113 -163 188 -189 54 -18 118 -19 2395 -19 l2340 0 62 29 c72 33 134 94
166 164 l22 47 0 1545 0 1545 -22 47 c-30 66 -96 133 -162 165 -56 28 -57 28
-326 34 -306 7 -372 19 -520 88 -211 99 -298 185 -523 523 -99 149 -186 268
-209 287 -21 17 -62 40 -91 51 -51 19 -80 20 -750 20 l-697 0 -60 -29z m995
-1287 c259 -46 493 -168 681 -354 189 -188 308 -407 365 -672 25 -117 26 -381
1 -498 -111 -525 -498 -915 -1020 -1027 -118 -26 -411 -25 -522 1 -293 68
-545 218 -723 430 -540 642 -348 1614 395 1994 267 136 533 177 823 126z"/>
<path d="M9914 10320 c-321 -44 -564 -322 -564 -645 0 -294 204 -557 490 -632
105 -28 255 -22 359 12 422 142 584 639 326 1000 -63 89 -136 150 -240 200
-128 61 -245 82 -371 65z"/>
</g>
</svg>
